<svg xmlns="http://www.w3.org/2000/svg" version="1.1" xmlns:xlink="http://www.w3.org/1999/xlink" xmlns:svgjs="http://svgjs.dev/svgjs" width="2000" height="1247" viewBox="0 0 2000 1247"><g transform="matrix(1,0,0,1,-1.2121212121212466,0.504858299595071)"><svg viewBox="0 0 396 247" data-background-color="#ffffff" preserveAspectRatio="xMidYMid meet" height="1247" width="2000" xmlns="http://www.w3.org/2000/svg" xmlns:xlink="http://www.w3.org/1999/xlink"><g id="tight-bounds" transform="matrix(1,0,0,1,0.2400000000000091,-0.09999999999999432)"><svg viewBox="0 0 395.52 247.2" height="247.2" width="395.52"><g><svg></svg></g><g><svg viewBox="0 0 395.52 247.2" height="247.2" width="395.52"><g transform="matrix(1,0,0,1,169.20069792284866,47.215199999999996)"><svg viewBox="0 0 57.11860415430267 152.7696" height="152.7696" width="57.11860415430267"><g><svg viewBox="0 0 57.11860415430267 152.7696" height="152.7696" width="57.11860415430267"><g><svg viewBox="0 0 57.11860415430267 152.7696" height="152.7696" width="57.11860415430267"><g><svg viewBox="0 0 57.11860415430267 152.7696" height="152.7696" width="57.11860415430267"><g id="textblocktransform"><svg viewBox="0 0 57.11860415430267 152.7696" height="152.7696" width="57.11860415430267" id="textblock"><g><svg viewBox="0 0 57.11860415430267 152.7696" height="152.7696" width="57.11860415430267"><g transform="matrix(1,0,0,1,0,0)"><svg width="57.11860415430267" viewBox="1.5 -33.7 12.6 33.7" height="152.7696" data-palette-color="#e6c400"><path d="M14.1-33.7L14.1-8.65Q14.1 0 6.25 0L6.25 0Q3.45 0 1.5-1.1L1.5-1.1 1.5-5Q3.5-3.7 5.7-3.7L5.7-3.7Q10.05-3.7 10.05-8.3L10.05-8.3 10.05-33.7 14.1-33.7Z" opacity="1" transform="matrix(1,0,0,1,0,0)" fill="#e6c400" class="wordmark-text-0" data-fill-palette-color="primary" id="text-0"></path></svg></g></svg></g></svg></g></svg></g></svg></g></svg></g></svg></g><path d="M44.018 41.215L44.018 0 291.218 0 291.218 247.2 44.018 247.2 44.018 205.985 57.795 205.985 57.795 233.423 277.441 233.423 277.441 13.777 57.795 13.777 57.795 41.215Z" fill="#e6c400" stroke="transparent" data-fill-palette-color="primary"></path></svg></g><defs></defs></svg><rect width="395.52" height="247.2" fill="none" stroke="none" visibility="hidden"></rect></g></svg></g></svg>