<svg xmlns="http://www.w3.org/2000/svg" version="1.1" xmlns:xlink="http://www.w3.org/1999/xlink" xmlns:svgjs="http://svgjs.dev/svgjs" width="1000" height="623" viewBox="0 0 1000 623"><g transform="matrix(1,0,0,1,-0.6060606060606233,0.2522267206477409)"><svg viewBox="0 0 396 247" data-background-color="#ffffff" preserveAspectRatio="xMidYMid meet" height="623" width="1000" xmlns="http://www.w3.org/2000/svg" xmlns:xlink="http://www.w3.org/1999/xlink"><g id="tight-bounds" transform="matrix(1,0,0,1,0.2400000000000091,-0.09999999999999432)"><svg viewBox="0 0 395.52 247.2" height="247.2" width="395.52"><g><svg></svg></g><g><svg viewBox="0 0 395.52 247.2" height="247.2" width="395.52"><g transform="matrix(1,0,0,1,152.7632068965517,47.215199999999996)"><svg viewBox="0 0 89.99358620689654 152.7696" height="152.7696" width="89.99358620689654"><g><svg viewBox="0 0 89.99358620689654 152.7696" height="152.7696" width="89.99358620689654"><g><svg viewBox="0 0 89.99358620689654 152.7696" height="152.7696" width="89.99358620689654"><g><svg viewBox="0 0 89.99358620689654 152.7696" height="152.7696" width="89.99358620689654"><g id="textblocktransform"><svg viewBox="0 0 89.99358620689654 152.7696" height="152.7696" width="89.99358620689654" id="textblock"><g><svg viewBox="0 0 89.99358620689654 152.7696" height="152.7696" width="89.99358620689654"><g transform="matrix(1,0,0,1,0,0)"><svg width="89.99358620689654" viewBox="1.4500000476837158 -34.29999923706055 20.5 34.79999923706055" height="152.7696" data-palette-color="#c0c0c0"><path d="M21.95-34.3L21.95-9.35Q21.95-4.8 19.15-2.15 16.35 0.5 11.8 0.5L11.8 0.5 11.35 0.5Q6.8 0.5 4.13-2.05 1.45-4.6 1.45-9.35L1.45-9.35 1.45-10.4 6.35-10.4 6.35-9.05Q6.35-6.8 7.88-5.38 9.4-3.95 11.75-3.95L11.75-3.95Q14.1-3.95 15.58-5.35 17.05-6.75 17.05-9.05L17.05-9.05 17.05-34.3 21.95-34.3Z" opacity="1" transform="matrix(1,0,0,1,0,0)" fill="#c0c0c0" class="wordmark-text-0" data-fill-palette-color="primary" id="text-0"></path></svg></g></svg></g></svg></g></svg></g></svg></g></svg></g></svg></g><path d="M60.455 41.215L60.455 0 307.655 0 307.655 247.2 60.455 247.2 60.455 205.985 74.232 205.985 74.232 233.423 293.879 233.423 293.879 13.777 74.232 13.777 74.232 41.215Z" fill="#c0c0c0" stroke="transparent" data-fill-palette-color="primary"></path></svg></g><defs></defs></svg><rect width="395.52" height="247.2" fill="none" stroke="none" visibility="hidden"></rect></g></svg></g></svg>