<svg xmlns="http://www.w3.org/2000/svg" version="1.1" xmlns:xlink="http://www.w3.org/1999/xlink" xmlns:svgjs="http://svgjs.dev/svgjs" width="308.7612359841165" height="304.915625" viewBox="0 0 1000 2375"><g transform="matrix(1,0,0,1,-1.3008393418221544,0.9615384615383391)"><svg viewBox="0 0 104 247" data-background-color="#ffffff" preserveAspectRatio="xMidYMid meet" height="2375" width="1000" xmlns="http://www.w3.org/2000/svg" xmlns:xlink="http://www.w3.org/1999/xlink"><g id="tight-bounds" transform="matrix(1,0,0,1,0.1352872915495027,-0.09999999999999432)"><svg viewBox="0 0 103.729425416901 247.2" height="247.2" width="103.729425416901"><g><svg viewBox="0 0 155.59019640718566 370.7906064" height="247.2" width="103.729425416901"><g><svg viewBox="0 0 155.59019640718566 370.7906064" height="370.7906064" width="155.59019640718566"><g id="textblocktransform"><svg viewBox="0 0 155.59019640718566 370.7906064" height="370.7906064" width="155.59019640718566" id="textblock"><g><rect width="155.59019640718566" height="247.2" fill="none" stroke-width="9.018103199999999" stroke="#77d4fc" data-fill-palette-color="none" data-stroke-palette-color="tertiary"></rect><rect width="155.59019640718566" height="123.5906064" y="247.2" fill="#77d4fc" data-fill-palette-color="tertiary"></rect></g><g><svg viewBox="0 0 155.59019640718566 247.2" height="247.2" width="155.59019640718566"><g transform="matrix(1,0,0,1,23.607599999999998,23.607599999999998)"><svg width="108.37499640718565" viewBox="1.5499999523162842 -32.79999923706055 18.100000381469727 33.39999771118164" height="199.9848" data-palette-color="#77d4fc"><path d="M10.6 0.6L10.6 0.6Q4.45 0.6 1.55-4.65L1.55-4.65 4.55-6.75Q5.65-4.8 7.05-3.93 8.45-3.05 10.2-3.05L10.2-3.05Q12.85-3.05 14.15-4.67 15.45-6.3 15.45-10.05L15.45-10.05 15.45-32.8 19.65-32.8 19.65-9.65Q19.65-7.55 19.13-5.68 18.6-3.8 17.53-2.4 16.45-1 14.73-0.2 13 0.6 10.6 0.6Z" opacity="1" transform="matrix(1,0,0,1,0,0)" fill="#77d4fc" class="wordmark-text-0" data-fill-palette-color="primary" id="text-0"></path></svg></g></svg></g></svg></g></svg></g></svg></g><defs></defs></svg><rect width="103.729425416901" height="247.2" fill="none" stroke="none" visibility="hidden"></rect></g></svg></g></svg>